<?xml version="1.0" standalone="no"?>
<!DOCTYPE svg PUBLIC "-//W3C//DTD SVG 20010904//EN"
 "http://www.w3.org/TR/2001/REC-SVG-20010904/DTD/svg10.dtd">
<svg version="1.0" xmlns="http://www.w3.org/2000/svg"
 width="384.000000pt" height="384.000000pt" viewBox="0 0 384.000000 384.000000"
 preserveAspectRatio="xMidYMid meet">
<metadata>
Created by potrace 1.11, written by Peter Selinger 2001-2013
</metadata>
<g transform="translate(0.000000,384.000000) scale(0.100000,-0.100000)"
fill="#000000" stroke="none">
<path d="M1855 3790 c5 -9 2 -10 -13 -6 -11 4 -23 2 -27 -4 -4 -7 -12 -7 -24
0 -10 5 -21 7 -24 4 -3 -3 -16 -7 -29 -8 -12 -2 -38 -6 -57 -11 -27 -6 -32 -4
-26 6 5 8 0 6 -11 -3 -15 -13 -23 -15 -32 -6 -9 9 -13 8 -17 -4 -4 -10 -14
-14 -27 -10 -12 3 -19 1 -15 -4 3 -5 -12 -9 -34 -9 -21 0 -39 -3 -39 -8 0 -5
-7 -6 -15 -3 -9 3 -18 -1 -21 -9 -3 -7 -12 -11 -20 -8 -8 3 -21 0 -29 -7 -8
-7 -15 -9 -15 -4 0 4 -5 3 -11 -3 -6 -6 -18 -9 -25 -6 -8 3 -14 0 -14 -7 0 -7
-7 -10 -15 -6 -8 3 -15 1 -15 -5 0 -6 -4 -7 -10 -4 -5 3 -10 2 -10 -4 0 -5 -8
-8 -17 -7 -10 2 -24 -4 -32 -11 -8 -8 -22 -12 -33 -10 -10 3 -16 1 -12 -4 5
-8 -9 -13 -28 -10 -5 0 -8 -4 -8 -10 0 -6 -7 -8 -16 -5 -10 4 -13 2 -8 -6 5
-8 2 -9 -10 -5 -9 4 -15 3 -12 -1 3 -4 -4 -14 -16 -21 -11 -7 -17 -8 -14 -3 3
6 -5 5 -18 -1 -17 -8 -21 -14 -13 -20 8 -6 4 -7 -10 -4 -13 3 -24 -1 -27 -10
-3 -8 -10 -11 -16 -8 -5 3 -10 2 -10 -2 0 -5 -9 -14 -21 -21 -12 -8 -18 -9
-15 -3 4 7 1 8 -8 5 -9 -3 -14 -9 -11 -13 2 -4 -11 -14 -30 -21 -19 -7 -31
-18 -28 -23 4 -6 0 -8 -10 -4 -10 4 -21 -3 -31 -19 -9 -13 -23 -24 -30 -24 -7
0 -19 -7 -26 -15 -7 -8 -16 -12 -21 -9 -5 3 -9 -2 -9 -10 0 -10 -6 -13 -17 -9
-11 4 -14 3 -9 -5 4 -7 -3 -14 -19 -18 -14 -3 -22 -11 -18 -17 4 -6 0 -8 -11
-4 -9 4 -15 3 -11 -2 3 -6 -8 -18 -25 -27 -16 -10 -30 -22 -30 -26 0 -4 -6 -8
-14 -8 -8 0 -18 -10 -21 -21 -6 -17 -9 -19 -16 -8 -6 11 -9 8 -9 -8 0 -17 -4
-21 -17 -16 -10 4 -14 2 -9 -5 3 -6 -3 -13 -14 -17 -40 -13 -49 -44 -52 -180
0 -53 -6 -93 -12 -97 -8 -6 -8 -8 1 -8 6 0 10 -11 8 -25 -1 -14 3 -25 9 -25 8
0 8 -2 0 -8 -6 -4 -10 -20 -10 -37 0 -16 4 -33 10 -37 8 -5 7 -8 -1 -8 -7 0
-10 -12 -8 -30 3 -21 1 -28 -7 -24 -8 5 -8 3 -2 -7 5 -8 10 -40 11 -71 2 -32
3 -64 3 -70 1 -7 -1 -52 -2 -100 -2 -56 0 -88 7 -88 6 0 6 -3 -1 -8 -6 -4 -10
-20 -10 -37 0 -16 4 -33 10 -37 8 -5 8 -8 0 -8 -6 0 -9 -22 -7 -57 4 -68 4
-62 2 -180 -1 -60 -5 -90 -12 -86 -6 4 -7 1 -1 -8 14 -23 16 -51 2 -43 -8 5
-8 3 -2 -7 13 -21 14 -171 0 -188 -8 -11 -8 -13 0 -8 7 4 12 -2 12 -18 0 -14
-5 -22 -11 -18 -6 4 -7 1 -1 -8 13 -21 15 -81 2 -73 -7 5 -8 2 -2 -7 13 -21
14 -171 0 -188 -8 -11 -8 -13 0 -8 7 4 11 -2 11 -18 0 -14 -4 -22 -10 -18 -6
4 -7 1 -1 -8 14 -22 15 -191 1 -182 -9 5 -9 3 -1 -8 15 -20 16 -161 0 -152 -8
5 -8 3 0 -8 6 -8 10 -24 9 -36 -1 -13 3 -23 9 -23 6 0 4 -5 -4 -10 -11 -7 -12
-12 -3 -21 6 -6 9 -18 6 -25 -3 -9 2 -14 13 -14 9 0 15 -3 11 -6 -7 -8 17 -34
32 -34 6 0 11 -4 11 -10 0 -5 12 -10 28 -10 21 0 24 -2 12 -10 -12 -8 -11 -10
8 -10 12 0 22 -4 22 -9 0 -5 7 -12 16 -15 10 -4 13 -2 9 7 -4 6 0 4 8 -5 8
-10 20 -18 26 -18 7 0 10 -4 7 -8 -2 -4 5 -9 16 -9 12 -1 24 -6 27 -11 3 -5
21 -15 39 -23 17 -8 32 -18 32 -23 0 -4 6 -6 14 -3 8 3 22 -4 33 -15 10 -11
35 -27 56 -35 20 -8 37 -19 37 -25 0 -5 4 -6 10 -3 5 3 10 1 10 -5 0 -6 4 -8
10 -5 6 3 10 1 10 -4 0 -6 7 -11 16 -11 9 0 12 -5 8 -12 -4 -7 -3 -8 5 -4 6 4
23 -2 37 -13 15 -11 30 -18 35 -15 5 3 9 0 9 -5 0 -6 7 -11 15 -11 8 0 15 -5
15 -11 0 -6 7 -8 16 -5 8 3 12 2 9 -4 -3 -6 -1 -11 4 -11 6 -1 16 -2 21 -3 6
0 14 -6 18 -12 4 -6 18 -15 32 -19 14 -4 36 -17 49 -29 14 -12 21 -15 17 -6
-4 8 2 4 14 -10 12 -14 19 -19 15 -13 -4 9 -1 11 9 7 9 -3 13 -11 9 -17 -4 -6
0 -8 10 -4 9 3 18 0 21 -9 3 -8 12 -14 21 -14 9 0 25 -9 37 -20 12 -11 30 -20
40 -20 10 0 18 -5 18 -12 0 -6 3 -9 6 -5 4 3 13 -1 21 -9 8 -8 18 -12 23 -9 4
3 10 -2 14 -10 3 -8 18 -15 33 -15 22 0 25 -2 13 -10 -12 -8 -11 -10 8 -10 12
0 22 -5 22 -11 0 -5 5 -7 10 -4 5 3 10 1 10 -5 0 -6 4 -8 10 -5 5 3 10 1 10
-4 0 -6 7 -11 15 -11 8 0 15 -5 15 -11 0 -5 4 -8 9 -4 5 3 16 -2 24 -10 9 -8
23 -15 32 -15 9 0 14 -4 10 -9 -3 -5 -1 -12 5 -16 5 -3 10 -1 10 5 0 6 5 8 10
5 6 -4 8 -11 5 -16 -3 -5 1 -6 9 -3 9 3 16 1 16 -6 0 -6 4 -8 10 -5 5 3 10 2
10 -3 0 -11 91 -52 116 -52 11 0 25 5 32 12 9 9 12 9 12 -2 1 -11 4 -10 15 4
7 10 19 15 25 11 6 -3 9 -1 8 5 -2 7 11 17 29 24 17 6 35 15 40 20 5 5 2 6 -6
1 -9 -5 -12 -4 -7 3 4 6 13 9 20 6 7 -3 20 2 29 10 8 8 17 12 21 9 3 -4 6 -1
6 6 0 7 5 9 10 6 6 -3 10 -1 10 4 0 6 6 11 13 11 7 0 23 9 35 20 12 12 22 18
22 14 0 -3 7 -1 15 6 8 7 15 9 15 4 0 -4 7 1 16 12 8 10 13 12 9 4 -4 -10 -2
-9 8 2 8 10 17 15 20 11 4 -3 7 -1 7 5 0 7 9 12 19 12 11 0 23 5 27 12 5 7 3
8 -6 3 -8 -5 -11 -4 -6 3 4 6 13 9 20 6 8 -3 21 5 30 18 10 15 16 17 16 8 0
-10 3 -11 8 -4 8 12 43 28 55 25 5 -1 6 3 2 8 -3 6 6 13 20 17 14 3 25 10 25
16 0 5 5 6 10 3 6 -3 13 0 16 9 3 8 12 12 20 9 7 -3 16 2 20 10 5 14 49 33 66
29 5 -1 7 4 5 11 -1 6 4 11 11 10 6 -2 12 2 12 8 0 5 4 8 10 4 5 -3 18 3 28
13 10 10 24 16 32 14 7 -3 10 0 6 7 -4 6 0 11 10 11 9 0 23 8 30 17 10 13 13
14 14 4 0 -9 7 -6 20 9 11 13 20 19 20 14 0 -5 7 0 15 10 8 11 15 17 15 13 0
-10 81 33 109 57 14 12 21 15 16 6 -5 -8 4 -4 18 9 15 14 27 20 27 15 0 -5 7
0 15 10 8 11 15 16 15 12 0 -4 14 3 32 15 18 14 28 17 24 8 -4 -7 -1 -6 7 4 8
9 19 17 26 17 6 0 11 5 11 10 0 6 8 10 19 10 10 0 24 7 31 15 7 9 15 13 18 10
3 -2 11 3 19 13 10 11 12 12 8 2 -4 -10 -2 -9 8 2 8 10 17 15 20 11 4 -3 7 -2
7 4 0 6 11 14 25 17 14 4 23 11 20 16 -3 6 -1 10 5 10 6 0 8 5 5 10 -3 6 -1
10 5 10 6 0 8 5 5 10 -4 6 -1 18 7 27 11 14 11 16 -2 8 -13 -8 -13 -7 -1 8 10
13 10 17 1 17 -8 0 -9 4 -3 12 11 15 11 28 -1 46 -5 8 -4 18 3 25 15 15 14 47
-1 47 -9 0 -9 3 -3 8 12 8 13 22 3 38 -4 6 -4 14 -1 18 13 12 13 46 0 46 -7 0
-8 3 -2 8 14 10 15 65 1 74 -7 5 -7 8 3 8 10 0 11 3 2 14 -7 8 -8 17 -4 19 11
7 10 58 -1 76 -7 11 -6 12 5 6 12 -7 12 -6 0 9 -9 11 -11 20 -5 24 12 8 12 22
0 41 -6 9 -5 12 1 8 12 -7 11 72 0 91 -5 6 -5 18 0 25 11 18 11 71 -1 79 -8 6
-8 8 0 8 6 0 9 15 8 33 -1 17 -3 32 -4 32 -1 0 -2 15 -3 33 -1 17 1 32 5 32 8
0 5 21 -5 38 -5 6 -5 18 0 25 11 18 11 80 0 95 -7 8 -6 17 1 24 16 16 15 48 0
48 -9 0 -9 3 -3 8 12 8 13 22 3 38 -4 6 -4 14 -1 18 13 12 13 46 0 46 -7 0 -8
3 -2 8 14 10 15 65 1 74 -7 5 -7 8 3 8 10 0 11 3 2 13 -6 8 -8 17 -4 21 11 11
11 79 0 94 -7 8 -6 17 1 24 16 16 16 41 0 32 -7 -5 -8 -3 -2 7 12 19 12 81 1
97 -7 8 -6 17 1 24 16 16 16 41 0 32 -7 -5 -8 -3 -2 7 12 19 12 81 1 97 -7 8
-6 17 1 24 16 16 16 41 0 32 -7 -5 -8 -3 -2 7 11 19 12 81 1 96 -5 7 -5 18 0
25 12 20 12 78 -1 78 -7 0 -7 3 -1 8 14 10 15 65 1 74 -7 5 -7 8 -1 8 13 0 13
49 1 69 -7 10 -5 12 5 6 11 -6 12 -5 2 6 -7 7 -13 21 -13 32 0 10 -4 16 -9 13
-5 -3 -11 4 -14 16 -4 12 -9 19 -12 16 -8 -7 -51 34 -48 44 2 5 -4 8 -13 8 -9
0 -12 5 -8 12 4 7 3 8 -4 4 -10 -6 -42 17 -100 74 -14 14 -22 18 -17 10 5 -8
-3 -3 -18 13 -14 15 -31 27 -37 27 -6 0 -8 5 -5 10 4 6 3 10 -2 9 -20 -3 -34
2 -28 11 4 6 3 9 -2 8 -4 -2 -24 7 -43 19 -19 13 -44 28 -55 35 -11 7 -23 17
-26 21 -3 5 -15 10 -25 11 -10 2 -18 9 -16 16 2 7 -3 10 -12 7 -9 -4 -21 2
-28 11 -13 16 -29 24 -55 25 -7 0 -10 4 -7 9 5 7 -10 12 -28 9 -5 0 -8 4 -8
11 0 6 -3 9 -6 5 -4 -3 -13 1 -21 9 -8 8 -19 12 -24 8 -5 -3 -12 2 -15 10 -3
9 -10 13 -16 10 -5 -3 -17 1 -26 9 -14 12 -48 25 -82 31 -3 1 -11 5 -17 9 -7
5 -13 5 -13 2 0 -4 -7 1 -16 10 -14 13 -19 14 -25 3 -7 -11 -9 -11 -9 1 0 7
-6 11 -15 7 -8 -3 -15 -1 -15 5 0 6 -7 8 -16 5 -10 -4 -13 -2 -8 6 5 8 2 9 -9
5 -10 -3 -17 -2 -17 2 0 5 -10 7 -22 3 -13 -3 -19 -1 -15 5 4 6 -6 9 -23 8
-17 -1 -30 2 -30 7 0 5 -4 7 -9 3 -5 -3 -13 0 -17 6 -4 8 -9 7 -15 -2 -6 -10
-9 -10 -9 -2 0 7 -7 10 -15 7 -8 -4 -15 -2 -15 4 0 12 -18 11 -39 -2 -10 -6
-12 -5 -7 2 5 8 -5 12 -34 12 -23 0 -39 4 -35 9 3 6 -6 6 -25 1 -17 -5 -28 -5
-25 -1 2 5 -12 7 -33 6 -20 -1 -40 3 -44 9 -5 8 -8 7 -8 -1 0 -9 -7 -10 -25
-3 -18 7 -25 6 -25 -3 0 -8 -4 -7 -10 3 -5 8 -10 11 -10 5 0 -12 -51 -12 -70
0 -9 6 -11 4 -5 -5z m255 -110 c11 -7 9 -31 -8 -117 -12 -59 -24 -122 -27
-139 -2 -17 -12 -66 -20 -110 -39 -198 -39 -208 2 -212 35 -3 36 -1 48 108 4
30 8 66 10 80 2 14 6 54 10 90 3 36 8 72 10 80 2 8 7 49 10 90 8 86 12 110 20
118 16 16 314 -61 425 -110 92 -41 240 -117 306 -159 137 -86 372 -268 399
-309 6 -9 10 -255 10 -648 l1 -633 -51 6 c-27 3 -61 7 -75 10 -14 2 -44 6 -67
9 -39 4 -43 3 -44 -17 0 -12 -2 -30 -4 -39 -3 -15 5 -18 43 -19 87 -2 186 -9
191 -15 3 -3 6 -77 6 -164 l0 -158 -45 18 c-25 10 -89 36 -144 59 -54 23 -101
41 -105 41 -7 0 -33 -62 -28 -66 1 -2 74 -27 162 -57 l160 -54 0 -207 c1 -113
-2 -206 -6 -206 -4 0 -14 6 -21 13 -7 7 -41 34 -76 61 -52 39 -61 50 -51 62
16 20 5 28 -19 15 -16 -8 -25 -7 -42 7 l-21 17 38 20 c41 22 54 35 47 47 -3 4
-24 -3 -48 -17 -48 -28 -63 -30 -89 -11 -16 12 -10 18 61 54 44 23 79 48 79
56 0 11 -24 3 -87 -30 -48 -24 -90 -44 -94 -44 -4 0 -28 16 -53 35 -25 19 -49
35 -53 35 -4 0 -16 -12 -25 -27 -19 -29 -20 -27 40 -67 19 -12 19 -14 2 -31
-24 -23 -14 -30 22 -16 35 15 78 -4 59 -26 -6 -7 -14 -13 -18 -13 -4 0 -52
-25 -107 -55 -56 -30 -105 -55 -111 -55 -5 0 -20 16 -33 35 -28 40 -35 42 -68
14 l-24 -20 32 -33 31 -32 -25 -14 c-14 -7 -25 -19 -25 -27 0 -15 16 -18 24
-4 11 18 45 19 61 1 15 -17 9 -21 -99 -79 -63 -33 -119 -61 -124 -61 -5 0 -23
29 -38 65 -30 68 -44 77 -80 51 -19 -14 -18 -17 17 -85 21 -39 33 -74 28 -77
-16 -9 -10 -24 10 -24 23 0 35 -25 18 -38 -7 -5 -61 -35 -122 -67 -129 -68
-119 -61 -110 -74 4 -7 53 14 131 55 69 36 127 65 128 63 18 -19 76 -153 69
-159 -4 -5 -80 -49 -168 -98 l-160 -89 -7 31 c-4 17 -9 51 -13 76 -3 25 -15
106 -26 180 -25 167 -27 189 -28 218 -1 21 -4 22 -38 16 -21 -4 -39 -8 -40 -9
-2 -1 23 -121 55 -268 l58 -266 -120 -67 -120 -67 -70 38 c-39 21 -77 43 -84
49 -13 9 -12 57 3 166 2 14 6 48 9 75 3 28 8 70 11 95 3 25 8 65 10 90 7 74
17 145 20 148 1 2 49 19 106 39 57 19 107 38 111 42 5 4 -19 88 -52 186 -55
166 -64 215 -39 215 6 0 7 5 4 10 -3 6 -15 10 -25 10 -21 0 -30 22 -101 238
-24 73 -49 132 -56 132 -14 0 -364 -118 -372 -125 -2 -3 7 -18 22 -33 17 -18
43 -77 76 -172 44 -129 48 -148 37 -171 -12 -24 -11 -27 13 -36 23 -8 32 -29
75 -157 40 -123 47 -155 41 -192 l-6 -43 35 14 c50 21 53 20 50 -27 -1 -24 -6
-110 -9 -193 -6 -137 -13 -276 -15 -282 0 -2 -15 6 -32 16 -18 10 -186 103
-373 208 -187 105 -361 202 -387 217 -88 48 -142 79 -190 107 -27 16 -51 29
-53 29 -3 0 -125 70 -135 78 -3 2 -5 276 -5 608 0 449 3 604 11 604 7 0 56 -9
109 -20 54 -11 99 -19 101 -17 2 1 5 14 7 28 9 46 12 44 -173 66 -25 2 -47 7
-50 10 -8 8 -7 314 1 319 5 2 67 -25 138 -61 72 -36 135 -65 139 -65 14 0 34
52 24 62 -4 4 -76 36 -158 71 l-149 62 -1 210 c-1 203 1 237 15 218 3 -4 41
-39 84 -77 74 -66 77 -70 61 -88 -19 -20 -11 -39 8 -20 16 16 43 15 57 -2 10
-12 4 -19 -33 -41 -25 -15 -46 -34 -46 -42 0 -12 8 -10 38 8 20 12 41 26 47
31 18 16 41 6 94 -42 l53 -49 -41 -12 c-23 -7 -41 -15 -41 -18 0 -3 13 -18 28
-33 21 -19 41 -64 77 -168 46 -136 47 -141 30 -160 -15 -17 -15 -20 -3 -20 22
0 49 -33 58 -72 4 -18 23 -73 41 -123 32 -84 40 -155 20 -155 -7 0 -38 78 -45
115 -8 37 -41 125 -47 125 -4 0 -5 -10 -3 -22 7 -27 20 -106 28 -163 3 -22 8
-53 12 -70 12 -60 14 -58 -93 -95 -70 -24 -103 -40 -106 -52 -6 -21 3 -23 23
-5 7 6 4 -4 -8 -23 l-21 -35 34 -32 c27 -26 31 -34 20 -43 -15 -12 -12 -44 4
-64 8 -9 4 -28 -11 -63 -25 -60 -80 -98 -129 -91 -16 3 -30 1 -30 -4 -1 -4 -2
-14 -3 -20 -1 -7 -1 -16 1 -20 2 -4 110 29 239 73 130 44 238 79 239 77 7 -8
44 -118 40 -118 -2 0 4 -20 15 -45 11 -25 19 -46 19 -48 -3 -8 27 -96 39 -112
l14 -20 -5 20 c-9 32 -22 103 -31 161 -4 22 -8 46 -11 54 -2 8 -7 31 -10 50
-2 19 -8 48 -11 63 -4 15 -3 27 2 26 10 -3 94 22 94 28 0 1 -9 12 -21 24 -14
14 -19 29 -16 49 5 28 26 73 27 56 0 -5 12 1 26 15 23 21 27 22 37 8 7 -9 22
-19 34 -23 22 -7 22 -8 6 -42 -33 -68 -20 -66 354 61 191 65 421 142 511 173
139 46 163 57 159 73 -3 10 2 27 10 38 8 12 12 25 8 30 -3 5 -1 12 4 15 4 3 7
24 6 47 -2 39 -1 41 24 34 14 -4 39 -6 55 -6 23 0 27 -3 23 -19 -3 -12 2 -28
11 -37 9 -9 15 -27 14 -40 -2 -12 2 -23 8 -23 20 0 495 163 501 172 3 5 5 36
4 68 -1 41 1 57 9 53 8 -5 8 -3 0 8 -6 8 -10 61 -10 130 l1 117 -40 -13 c-97
-31 -171 -59 -182 -67 -7 -5 -17 -7 -23 -3 -5 3 -10 2 -10 -3 0 -5 -18 -12
-39 -16 -22 -3 -46 -14 -53 -24 -7 -10 -24 -17 -38 -15 -29 2 -54 -5 -170 -45
-65 -23 -85 -34 -85 -48 0 -23 -32 -31 -37 -10 -5 24 -245 -58 -254 -87 -4
-12 -5 -23 -3 -24 7 -4 -36 -32 -49 -33 -7 0 -17 10 -23 23 l-11 23 -269 -91
c-149 -50 -274 -97 -278 -103 -4 -7 -18 -11 -32 -10 -13 1 -114 -29 -224 -66
-110 -38 -204 -69 -210 -70 -5 -1 -16 -5 -24 -10 -8 -5 -16 -3 -22 5 -13 21
-11 39 6 39 8 0 14 -3 13 -8 -2 -4 2 -7 7 -7 6 0 9 3 7 8 -1 4 1 6 5 5 8 -2
291 90 351 113 l27 11 -25 10 c-19 7 -21 11 -11 17 16 10 -2 76 -69 261 -21
58 -61 175 -88 260 -28 86 -55 168 -61 182 l-10 27 -102 -34 c-56 -19 -107
-31 -113 -28 -25 15 -126 95 -131 103 -3 5 13 19 35 31 22 13 40 29 40 36 0
18 -4 17 -57 -16 -36 -22 -51 -27 -65 -20 -10 5 -18 13 -18 17 0 8 246 162
258 162 4 -1 31 -39 60 -85 l54 -84 28 21 c34 24 33 26 -34 112 -25 33 -46 62
-46 66 0 3 14 14 31 24 21 12 27 22 21 28 -7 7 -21 4 -41 -8 -30 -18 -31 -18
-52 2 l-21 21 35 22 c74 45 240 122 247 114 4 -4 20 -46 35 -93 49 -149 50
-150 85 -137 16 6 30 17 30 23 0 6 -29 80 -65 165 -36 84 -64 154 -62 155 7 7
98 43 150 59 52 16 79 37 65 50 -2 3 -54 -13 -114 -35 -60 -22 -112 -40 -116
-40 -4 0 -10 10 -14 23 -4 12 -18 46 -31 76 -20 43 -22 55 -11 62 36 24 365
115 375 105 5 -4 10 -61 18 -181 4 -55 8 -113 11 -130 2 -16 6 -77 10 -135 3
-58 8 -108 11 -112 6 -11 45 -10 61 1 11 6 11 20 3 67 -6 32 -13 79 -16 104
-3 25 -7 52 -10 60 -2 8 -7 44 -10 80 -4 36 -8 67 -10 70 -4 7 -18 120 -19
155 -1 27 3 31 34 36 54 8 346 8 360 -1z m-835 -230 c14 -40 24 -74 22 -75 -1
-1 -24 -13 -52 -27 -89 -44 -230 -120 -242 -129 -8 -7 -28 10 -66 58 l-55 68
57 36 c96 62 293 161 302 152 5 -5 20 -42 34 -83z m45 -129 c12 -23 18 -19
-115 -87 -55 -28 -115 -60 -133 -70 -32 -19 -33 -19 -47 0 -13 17 -12 21 8 35
27 19 259 140 269 141 4 0 12 -9 18 -19z m-418 -69 l45 -67 -90 -65 c-49 -36
-101 -75 -116 -87 -14 -13 -29 -23 -32 -23 -8 0 -21 -31 -16 -37 3 -2 64 39
138 91 129 93 133 95 147 75 8 -11 10 -24 6 -28 -42 -37 -270 -181 -280 -177
-34 13 -160 117 -161 133 -1 23 272 250 303 252 6 1 31 -29 56 -67z m125 -185
c10 -22 3 -28 -120 -106 -128 -81 -153 -89 -164 -55 -2 8 251 181 268 183 3 1
10 -9 16 -22z m154 -534 c18 -54 40 -104 51 -111 25 -18 23 -48 -4 -67 l-23
-15 23 -6 c12 -4 22 -7 22 -8 0 -1 18 -55 40 -120 22 -65 40 -121 40 -126 0
-9 -129 -55 -136 -48 -2 3 -22 60 -44 128 -27 83 -37 127 -30 134 16 16 12 30
-12 41 -16 8 -31 38 -60 125 -21 63 -37 119 -35 124 4 11 92 44 119 45 12 1
25 -24 49 -96z m1643 -144 c-3 -5 -10 -7 -15 -3 -5 3 -7 10 -3 15 3 5 10 7 15
3 5 -3 7 -10 3 -15z m74 -34 c22 -6 22 -8 7 -31 -9 -14 -14 -31 -12 -37 2 -7
-9 -20 -25 -29 -30 -19 -39 -42 -11 -31 11 5 14 3 8 -6 -4 -8 -3 -16 4 -20 19
-12 -11 -41 -44 -44 -25 -2 -30 2 -31 21 -1 13 7 29 17 35 23 14 25 27 4 27
-31 0 -46 80 -19 102 8 7 23 21 32 30 14 15 18 15 31 4 9 -8 26 -17 39 -21z
m-298 -35 c13 -9 13 -12 -3 -25 -24 -18 -46 -9 -40 16 6 21 20 24 43 9z m-214
-126 c-3 -8 -13 -14 -21 -14 -12 0 -15 6 -9 23 4 12 12 25 18 29 13 8 21 -16
12 -38z m569 14 c14 -6 25 -14 25 -18 0 -12 -63 5 -68 18 -5 15 10 15 43 0z
m-440 -36 c0 -18 -20 -15 -23 4 -3 10 1 15 10 12 7 -3 13 -10 13 -16z m105 -6
c0 -3 -4 -8 -10 -11 -5 -3 -10 -1 -10 4 0 6 5 11 10 11 6 0 10 -2 10 -4z
m-440 -45 c0 -19 -23 -35 -34 -24 -14 15 -5 43 14 43 13 0 20 -7 20 -19z
m-210 -11 c0 -5 -4 -10 -10 -10 -5 0 -10 5 -10 10 0 6 5 10 10 10 6 0 10 -4
10 -10z m880 -20 c0 -12 -28 -25 -36 -17 -9 9 6 27 22 27 8 0 14 -5 14 -10z
m-864 -22 c3 -4 13 -4 22 -1 11 5 14 2 9 -11 -4 -10 -1 -19 7 -22 21 -8 14
-81 -9 -98 -41 -30 -90 19 -67 68 6 13 9 35 8 49 -3 23 13 31 30 15z m184 -12
c0 -3 -4 -8 -10 -11 -5 -3 -10 -1 -10 4 0 6 5 11 10 11 6 0 10 -2 10 -4z
m-840 -200 c0 -7 -7 -19 -15 -26 -19 -16 -41 1 -32 24 8 20 47 21 47 2z m-81
-388 c1 -27 -18 -21 -30 9 -7 20 -7 28 3 34 14 9 26 -11 27 -43z m509 -75 c23
-71 43 -133 42 -139 0 -7 -8 -15 -17 -18 -14 -6 -12 -10 13 -25 25 -15 36 -37
73 -145 24 -70 42 -128 40 -130 -9 -6 -141 -47 -144 -44 -1 1 -22 62 -46 135
-42 129 -43 132 -24 152 18 21 18 21 -2 21 -11 0 -25 6 -31 13 -10 12 -92 242
-92 258 0 8 106 47 130 48 11 1 28 -36 58 -126z m1278 -317 c10 -8 17 -16 14
-19 -3 -2 -63 -34 -134 -72 -126 -66 -152 -72 -163 -39 -2 5 34 29 79 53 46
25 101 55 123 67 48 27 55 28 81 10z m73 -49 c11 -14 -18 -33 -202 -127 -74
-38 -89 -43 -97 -30 -5 8 -10 17 -10 20 0 8 264 148 281 149 9 0 22 -5 28 -12z
m148 -95 c23 -15 42 -29 42 -32 1 -5 -285 -168 -330 -187 -26 -12 -29 -10 -78
54 -28 36 -50 67 -49 68 2 1 57 31 123 66 66 34 133 71 150 81 32 19 30 20
142 -50z m-502 -89 c12 -16 0 -25 -117 -86 -97 -51 -133 -66 -141 -58 -20 20
3 38 123 100 63 33 117 60 119 61 2 0 9 -8 16 -17z m86 -95 c25 -29 48 -58 52
-65 5 -7 -48 -42 -149 -98 -85 -48 -157 -86 -159 -83 -8 8 -65 141 -65 151 0
13 235 144 261 146 8 0 35 -23 60 -51z m149 -132 c0 -2 -7 -7 -16 -10 -8 -3
-12 -2 -9 4 6 10 25 14 25 6z"/>
<path d="M2403 3171 c-105 -36 -194 -69 -198 -72 -3 -4 4 -35 16 -70 l22 -64
32 31 c27 28 109 64 119 53 2 -2 22 -58 44 -124 37 -109 39 -122 26 -142 -12
-19 -12 -23 -1 -23 24 0 44 -33 73 -122 19 -60 31 -85 41 -81 7 3 13 -2 13
-11 0 -9 -5 -16 -10 -16 -7 0 -6 -8 1 -22 7 -13 12 -24 11 -25 -1 -2 -2 -13
-2 -25 1 -20 2 -21 10 -6 7 10 7 25 1 41 -12 32 -3 67 15 60 8 -3 14 0 14 7 0
6 5 8 10 5 6 -3 10 -2 10 4 0 5 -5 13 -11 17 -6 3 -9 17 -7 29 3 15 1 22 -7
19 -7 -3 -15 3 -19 13 -3 10 -9 24 -12 31 -3 7 0 11 8 10 9 -2 12 7 10 32 -2
19 -7 39 -12 44 -5 5 -2 19 7 33 9 13 14 25 12 26 -2 1 -13 7 -23 13 -13 7
-33 49 -58 124 -21 63 -38 119 -38 125 0 16 90 37 132 30 37 -6 37 -6 28 22
-29 91 -34 103 -49 102 -9 -1 -102 -31 -208 -68z m165 -502 c-2 -6 -8 -10 -13
-10 -5 0 -11 4 -13 10 -2 6 4 11 13 11 9 0 15 -5 13 -11z m13 -42 c-1 -12 -15
-9 -19 4 -3 6 1 10 8 8 6 -3 11 -8 11 -12z m29 -47 c0 -5 -7 -10 -16 -10 -8 0
-12 5 -9 10 3 6 10 10 16 10 5 0 9 -4 9 -10z"/>
<path d="M1965 3025 c-99 -35 -188 -65 -199 -68 -17 -5 -16 -9 12 -36 23 -23
42 -65 77 -171 45 -136 46 -141 30 -167 -9 -14 -13 -23 -7 -19 23 14 52 -35
91 -152 23 -68 41 -143 41 -166 0 -24 2 -45 5 -48 8 -8 155 44 155 54 0 4 -4
8 -9 8 -18 0 -54 72 -97 197 -40 117 -42 129 -28 150 12 19 12 23 1 23 -8 0
-21 8 -29 18 -15 17 -93 240 -87 246 5 5 124 46 131 46 4 0 25 -57 48 -126 31
-92 39 -129 31 -137 -13 -13 -15 -41 -3 -33 19 12 36 -19 79 -144 34 -102 44
-144 41 -182 -1 -26 -1 -48 0 -48 5 0 156 53 161 56 2 2 -9 16 -25 31 -19 20
-41 70 -75 170 -40 121 -45 144 -34 160 11 15 10 19 -12 33 -36 22 -117 265
-109 328 3 23 2 41 -2 41 -4 -1 -88 -30 -187 -64z m152 -772 c-3 -3 -11 -2
-17 2 -8 5 -7 11 2 22 12 15 13 14 16 -1 2 -10 1 -20 -1 -23z"/>
<path d="M1487 2862 c-182 -61 -196 -68 -180 -82 33 -28 45 -50 72 -128 23
-67 30 -77 49 -74 16 2 20 -1 16 -12 -3 -8 -12 -12 -20 -9 -11 4 -10 -4 3 -42
11 -34 13 -55 7 -74 -8 -22 -6 -28 11 -36 30 -15 116 -274 109 -332 l-5 -42
58 22 c32 13 100 36 150 52 89 28 92 29 76 47 -13 15 -15 23 -6 36 6 10 14 32
17 49 6 25 11 30 28 25 16 -4 20 -1 16 9 -3 8 -22 65 -44 127 -33 97 -37 115
-26 133 8 12 12 22 10 22 -38 19 -46 34 -92 167 -42 124 -47 148 -38 177 7 24
7 33 -1 33 -7 -1 -101 -31 -210 -68z m164 -220 c29 -88 32 -106 21 -123 -8
-12 -12 -22 -10 -22 37 -18 46 -34 78 -125 29 -85 38 -102 59 -107 22 -6 23
-8 8 -22 -19 -19 -146 -65 -158 -57 -5 3 -9 11 -9 17 0 7 -9 29 -20 50 -11 20
-19 40 -19 44 4 24 -3 44 -22 61 -16 16 -19 27 -14 56 4 20 11 39 16 42 16 9
10 22 -14 28 -19 4 -29 25 -61 123 -21 65 -39 122 -40 127 0 5 28 19 64 31
l65 22 11 -21 c6 -12 27 -67 45 -124z m-151 -118 c0 -16 -2 -16 -24 -8 -13 5
-14 9 -5 20 13 16 29 9 29 -12z m80 -182 c0 -13 -23 -32 -37 -32 -19 0 -27 28
-13 45 9 11 17 12 31 4 10 -5 19 -13 19 -17z"/>
<path d="M2633 2505 c0 -14 3 -22 8 -19 12 7 11 -3 -2 -28 -18 -33 5 -47 34
-20 27 26 39 28 31 7 -4 -8 -1 -15 5 -15 17 0 13 29 -9 57 -11 14 -20 22 -20
18 0 -4 -11 0 -24 8 -22 15 -23 15 -23 -8z"/>
<path d="M2584 2408 c-8 -26 -4 -28 29 -15 l27 12 -25 11 c-21 10 -25 9 -31
-8z"/>
<path d="M1914 2189 c-26 -34 -25 -38 7 -29 37 11 49 20 27 20 -9 0 -18 5 -20
11 -2 7 -7 7 -14 -2z"/>
<path d="M2305 1843 c-88 -30 -170 -57 -182 -60 -29 -7 -29 -9 5 -48 19 -20
45 -80 75 -169 49 -144 53 -161 37 -171 -16 -10 -12 -21 13 -32 35 -16 121
-274 115 -342 l-5 -49 191 65 c105 36 193 67 195 69 3 3 -5 35 -17 73 l-22 68
-33 -31 c-37 -35 -193 -95 -207 -80 -5 5 -25 58 -45 118 -29 87 -34 110 -23
117 22 14 77 22 114 16 19 -3 34 -3 34 1 0 3 -12 43 -27 89 l-27 83 -26 -24
c-26 -24 -51 -39 -94 -55 -24 -10 -25 -8 -62 102 -20 62 -39 117 -41 123 -7
18 163 67 214 61 23 -2 43 -1 43 2 0 24 -44 131 -53 130 -7 0 -84 -25 -172
-56z"/>
<path d="M798 1753 c-10 -2 -18 -9 -18 -14 0 -14 16 -11 30 6 7 8 11 14 9 14
-2 -1 -12 -3 -21 -6z"/>
<path d="M1970 1730 c-115 -39 -109 -34 -78 -59 27 -22 37 -45 99 -223 29 -83
32 -102 22 -127 -10 -27 -9 -30 12 -35 20 -5 31 -28 71 -148 50 -151 56 -179
43 -215 -5 -13 -5 -23 -1 -23 8 0 165 51 170 56 2 1 -10 17 -27 34 -22 23 -43
70 -79 179 -45 133 -48 149 -35 168 14 21 13 23 -9 28 -21 5 -31 26 -73 148
-52 153 -55 167 -43 211 4 16 7 30 5 31 -1 1 -36 -10 -77 -25z"/>
<path d="M1400 1580 c-8 -5 -10 -10 -5 -10 6 0 17 5 25 10 8 5 11 10 5 10 -5
0 -17 -5 -25 -10z"/>
</g>
</svg>
